<?xml version="1.0" standalone="no"?>
<!DOCTYPE svg PUBLIC "-//W3C//DTD SVG 20010904//EN"
 "http://www.w3.org/TR/2001/REC-SVG-20010904/DTD/svg10.dtd">
<svg version="1.0" xmlns="http://www.w3.org/2000/svg"
 width="280.000000pt" height="280.000000pt" viewBox="0 0 280.000000 280.000000"
 preserveAspectRatio="xMidYMid meet">
<metadata>
Created by potrace 1.14, written by Peter Selinger 2001-2017
</metadata>
<g transform="translate(0.000000,280.000000) scale(0.100000,-0.100000)"
fill="#000000" stroke="none">
<path d="M1238 2704 c-278 -49 -520 -222 -625 -446 -45 -96 -70 -162 -74 -193
0 -5 -5 -17 -10 -26 -4 -9 -10 -27 -13 -40 -36 -181 -39 -206 -41 -339 -1 -63
-3 -119 -3 -123 -1 -4 -12 1 -24 13 -22 20 -32 24 -57 20 -16 -2 -47 -30 -34
-30 4 0 2 -4 -4 -8 -28 -17 -33 -146 -14 -298 20 -154 59 -235 107 -228 20 3
24 -6 48 -101 45 -180 105 -321 172 -405 50 -63 189 -193 241 -227 15 -10 34
-23 41 -30 7 -7 20 -13 28 -13 8 0 14 -4 14 -10 0 -5 4 -10 10 -10 5 0 33 -11
62 -24 48 -21 84 -35 113 -42 100 -26 118 -28 206 -27 253 2 561 171 712 389
41 60 117 216 127 259 1 6 5 15 9 20 9 11 25 66 23 77 -1 4 12 6 28 6 54 -2
88 47 129 186 12 37 23 78 25 90 3 11 8 32 11 46 17 66 17 158 0 194 -19 40
-42 45 -85 21 -14 -8 -28 -14 -31 -15 -4 0 0 26 7 58 38 158 37 381 -2 569
-37 182 -101 301 -228 429 -69 68 -138 124 -155 124 -6 0 -11 4 -11 8 0 15
-183 93 -254 108 -157 34 -320 41 -448 18z"/>
</g>
</svg>
